<svg id="Ebene_1" data-name="Ebene 1" xmlns="http://www.w3.org/2000/svg" viewBox="0 0 136 120"><defs><style>.cls-1{fill:#7798cf;}.cls-2{fill:#585aa4;}.cls-3{fill:#6878b9;}.cls-4{fill:#7ab8e6;}</style></defs><path class="cls-1" d="M1.09,31.94h0L69,78.39V33.6A13.33,13.33,0,0,1,58.2,28L47.37,12.24c-10.38-15.09-31-15-41.2.24l-.1.13A30.57,30.57,0,0,0,1.09,31.94Z" transform="translate(-1 -1)"/><path class="cls-2" d="M41.53,97.37l9.61,13.8c9.2,13.22,27.4,13.08,36.43-.27l8.9-13.53L69,78.39Z" transform="translate(-1 -1)"/><path class="cls-3" d="M1.09,31.94a29.76,29.76,0,0,0,5.16,14.8L41.53,97.37,69,78.39Z" transform="translate(-1 -1)"/><path class="cls-4" d="M69,33.6c4.18-.2,8.1-1.66,10.8-5.6L90.63,12.24c10.38-15.09,31-15,41.2.24l.1.13a30.57,30.57,0,0,1,5,19.33h0L69,78.39" transform="translate(-1 -1)"/><path class="cls-3" d="M69,78.39l27.47,19,35.28-50.63a29.76,29.76,0,0,0,5.16-14.8L69,78.39" transform="translate(-1 -1)"/></svg>